<svg width="96" height="96" viewBox="0 0 96 96" fill="none" xmlns="http://www.w3.org/2000/svg">
<g clip-path="url(#clip0_13_9)">
<path d="M48 12C28.12 12 12 28.12 12 48C12 67.88 28.12 84 48 84C51.32 84 54 81.32 54 78C54 76.44 53.4 75.04 52.44 73.96C51.52 72.92 50.92 71.52 50.92 70C50.92 66.68 53.6 64 56.92 64H64C75.04 64 84 55.04 84 44C84 26.32 67.88 12 48 12ZM26 48C22.68 48 20 45.32 20 42C20 38.68 22.68 36 26 36C29.32 36 32 38.68 32 42C32 45.32 29.32 48 26 48ZM38 32C34.68 32 32 29.32 32 26C32 22.68 34.68 20 38 20C41.32 20 44 22.68 44 26C44 29.32 41.32 32 38 32ZM58 32C54.68 32 52 29.32 52 26C52 22.68 54.68 20 58 20C61.32 20 64 22.68 64 26C64 29.32 61.32 32 58 32ZM70 48C66.68 48 64 45.32 64 42C64 38.68 66.68 36 70 36C73.32 36 76 38.68 76 42C76 45.32 73.32 48 70 48Z" fill="white"/>
</g>
<defs>
<clipPath id="clip0_13_9">
<rect width="96" height="96" fill="white"/>
</clipPath>
</defs>
</svg>
